HIERARCHY
ROOT Hips
{
  OFFSET 267.745 86.9975 -272.335
  CHANNELS 6 Xposition Yposition Zposition Zrotation Xrotation Yrotation
  JOINT LeftUpLeg
  {
    OFFSET 8.64259 1.95398 -2.38835
    CHANNELS 3 Zrotation Xrotation Yrotation
    JOINT LeftLeg
    {
      OFFSET 43.7702 0 0
      CHANNELS 3 Zrotation Xrotation Yrotation
      JOINT LeftFoot
      {
        OFFSET 40.6238 0 0
        CHANNELS 3 Zrotation Xrotation Yrotation
        JOINT LeftToeBase
        {
          OFFSET 12.7242 0 0
          CHANNELS 3 Zrotation Xrotation Yrotation
          End Site
          {
            OFFSET 0 0 0
          }
        }
      }
    }
  }
  JOINT RightUpLeg
  {
    OFFSET -8.2249 1.95398 -2.59336
    CHANNELS 3 Zrotation Xrotation Yrotation
    JOINT RightLeg
    {
      OFFSET 43.5653 0 0
      CHANNELS 3 Zrotation Xrotation Yrotation
      JOINT RightFoot
      {
        OFFSET 40.6238 0 0
        CHANNELS 3 Zrotation Xrotation Yrotation
        JOINT RightToeBase
        {
          OFFSET 12.7242 0 0
          CHANNELS 3 Zrotation Xrotation Yrotation
          End Site
          {
            OFFSET 0 0 0
          }
        }
      }
    }
  }
  JOINT Spine
  {
    OFFSET 0.165834 0.87714 6.61349
    CHANNELS 3 Zrotation Xrotation Yrotation
    JOINT Spine1
    {
      OFFSET 7.38963 1.71661e-005 0
      CHANNELS 3 Zrotation Xrotation Yrotation
      JOINT Spine2
      {
        OFFSET 11.9445 1.14441e-005 0
        CHANNELS 3 Zrotation Xrotation Yrotation
        JOINT Spine3
        {
          OFFSET 14.7254 4.19617e-005 0
          CHANNELS 3 Zrotation Xrotation Yrotation
          JOINT Spine4
          {
            OFFSET 10.9679 0 0
            CHANNELS 3 Zrotation Xrotation Yrotation
            JOINT RightShoulder
            {
              OFFSET 2.46616 -1.6653 3.69651
              CHANNELS 3 Zrotation Xrotation Yrotation
              JOINT RightArm
              {
                OFFSET 13.0012 0 0
                CHANNELS 3 Zrotation Xrotation Yrotation
                JOINT RightForeArm
                {
                  OFFSET 28.7848 1.52588e-005 0
                  CHANNELS 3 Zrotation Xrotation Yrotation
                  JOINT RightHand
                  {
                    OFFSET 26.5688 1.52588e-005 0
                    CHANNELS 3 Zrotation Xrotation Yrotation
                    End Site
                    {
                      OFFSET 0 0 0
                    }
                  }
                }
              }
            }
            JOINT LeftShoulder
            {
              OFFSET 2.38034 -1.29275 -3.7523
              CHANNELS 3 Zrotation Xrotation Yrotation
              JOINT LeftArm
              {
                OFFSET 16.3182 6.10352e-005 0
                CHANNELS 3 Zrotation Xrotation Yrotation
                JOINT LeftForeArm
                {
                  OFFSET 27.0901 0 0
                  CHANNELS 3 Zrotation Xrotation Yrotation
                  JOINT LeftHand
                  {
                    OFFSET 24.5451 1.52588e-005 0
                    CHANNELS 3 Zrotation Xrotation Yrotation
                    End Site
                    {
                      OFFSET 0 0 0
                    }
                  }
                }
              }
            }
            JOINT Neck
            {
              OFFSET 5.0226 -0.0266342 0
              CHANNELS 3 Zrotation Xrotation Yrotation
              JOINT Head
              {
                OFFSET 6.69364 2.86102e-005 0
                CHANNELS 3 Zrotation Xrotation Yrotation
                End Site
                {
                  OFFSET 0 0 0
                }
              }
            }
          }
        }
      }
    }
  }
}
MOTION
Frames:	7
Frame Time:	0.0416667
194.007 96.1089 -198.982 108.25 53.2008 75.6558 -175.725 8.56109 86.9383 -29.4873 18.2827 0.839553 65.0217 3.58459 11.8815 31.1034 0.237818 -5.11537 168.972 7.84443 81.5072 -59.9652 -11.0879 -0.645805 51.2352 10.298 28.8277 50.7959 -5.20863 2.07473 0.137431 8.13563 -90.1228 10.6028 0.217334 -0.263646 -1.06816 0.205524 -0.272969 -23.6033 0.286515 -0.186145 -3.59068 0.286523 -0.186147 102.254 -49.5269 -82.0277 31.0348 -7.98527 -3.3249 -6.87619 -22.1098 -23.0765 -10.735 -0.494057 0.177818 -81.5457 -50.2591 91.2592 -26.3569 -7.73664 -6.1084 1.544 48.4491 -2.41355 -2.11509 -0.0878087 -3.15323 2.06779 -6.92791 -25.4317 -18.9169 -7.82262 37.0185 
190.491 96.0397 -194.284 104.464 49.6734 78.1418 -175.95 12.1357 86.3411 -25.2083 17.8107 -0.0159154 59.0857 -0.989569 13.4601 31.2585 0.352465 -6.65195 170.035 -1.9839 80.832 -48.5687 -9.55463 -1.60528 51.2403 10.21 29.8093 50.1206 -5.10072 1.21212 0.80216 7.81964 -90.0308 11.2378 1.58211 -0.218649 -0.432215 1.57094 -0.288095 -22.9751 1.57465 0.267064 -2.96247 1.57466 0.267061 101.545 -49.4703 -83.1414 30.7265 -9.26671 -4.05603 -6.55307 -21.8521 -22.8993 -9.855 -0.460636 0.255267 -80.3878 -50.7329 93.0348 -23.6117 -9.13505 2.16915 2.63799 49.0389 -4.27401 -6.24522 -0.115396 -3.59859 -0.89294 -5.52593 -22.0167 -17.9482 -6.77802 33.4229 
186.183 96.0638 -188.077 100.03 48.0658 81.3378 -177.313 14.8904 86.7143 -15.1501 15.0309 0.316045 51.1722 -6.18107 9.28827 35.0486 -0.379698 -3.98803 171.258 -6.69882 82.1408 -33.9433 -6.47252 -1.64963 58.4031 8.15002 28.9595 49.0084 -4.44514 6.69253 1.07234 7.68188 -89.9723 11.5121 2.14642 -0.162086 -0.157114 2.13721 -0.256449 -22.706 2.09587 0.490792 -2.69338 2.09584 0.490785 101.583 -48.6031 -83.0903 31.6457 -10.6559 -6.56728 -8.95952 -22.0718 -26.2631 -7.96437 -0.327659 -0.425532 -79.684 -52.7511 94.1653 -21.7429 -10.9768 4.5949 3.76079 44.6471 -5.1893 -10.756 -0.124735 -3.91092 1.90753 -3.43982 -16.34 -21.7156 -5.06106 26.5309 
180.986 96.6159 -180.764 99.6065 50.5658 84.2838 -178.104 16.5235 88.9951 -7.85943 12.0812 1.57964 53.7909 -3.16702 4.48101 41.9948 -1.47774 2.21317 172.921 -5.77288 87.936 -28.6888 -2.07874 0.151405 66.4556 5.11701 21.7559 44.5056 -3.55592 6.41549 1.05478 8.03878 -90.4315 10.8087 1.90107 -1.03942 -0.861254 1.85349 -1.12211 -23.4071 2.12554 -0.419814 -3.39448 2.12556 -0.419812 101.239 -47.8122 -83.6536 30.0602 -12.3892 -7.88626 -10.5103 -17.9462 -32.0076 -8.64657 -0.256625 -1.79714 -80.1088 -53.9025 93.5833 -25.3559 -10.4459 -2.40188 4.02835 46.997 -4.50161 -13.1372 -0.176323 -3.45974 6.98241 -1.87804 -8.39439 -26.1645 -3.22689 15.521 
176.19 97.3074 -174.585 99.8809 52.8506 83.9924 -178.033 16.7853 88.7158 -8.57731 9.15334 1.03358 51.1097 -2.72101 7.06972 42.9811 -1.55233 4.22452 174.114 -1.78331 90.1938 -27.7192 -1.66681 0.65235 70.3746 1.96839 13.4137 36.337 -1.90943 1.94453 0.746504 8.2841 -90.5328 10.3112 1.24351 -1.16584 -1.3597 1.19102 -1.21945 -23.8976 1.5364 -0.738191 -3.88499 1.53641 -0.738204 101.144 -48.2066 -83.7966 27.6031 -13.6685 -8.49368 -11.5109 -18.4138 -33.434 -9.10795 -0.299076 -1.43197 -80.725 -53.4767 92.6664 -27.8463 -4.5388 -7.0093 7.89473 44.0062 -13.378 -11.8997 0.0312688 -5.83139 8.22884 -1.17891 -5.30173 -27.5683 -2.10268 9.8791 
171.862 97.7039 -170.22 101.399 54.8739 81.377 -178.725 17.1699 87.0537 -28.4787 5.79074 1.225 53.3592 0.929442 7.25977 47.0741 -1.71825 7.39852 174.02 2.46583 88.5116 -29.6037 -0.680667 0.626207 69.019 4.56685 13.4172 32.6855 -1.11604 2.76137 0.444523 8.36736 -90.4503 10.1412 0.680545 -0.951428 -1.5299 0.638016 -0.980461 -24.0648 0.935027 -0.702912 -4.05218 0.935025 -0.702916 101.667 -48.5326 -82.9591 27.8902 -11.5748 -6.11162 -8.08652 -17.2835 -28.8412 -9.17973 -0.338186 -0.961618 -82.0203 -51.7925 90.6549 -29.8344 0.577271 -13.7113 8.51715 42.7082 -16.3431 -6.66539 -0.0387386 -5.64617 5.33714 -1.95444 -4.66711 -24.4847 -2.62973 8.67571 
167.511 97.4681 -166.439 102.197 56.1238 79.8014 -178.238 14.7754 86.4212 -49.0936 3.57733 2.28466 56.9523 3.41765 7.05143 47.3667 -1.64327 9.90745 173.759 7.70117 87.5089 -32.5977 -1.62998 0.895864 67.588 5.38023 11.7954 33.2604 -1.25208 2.86253 0.150396 8.24266 -90.3981 10.3874 0.117176 -0.80288 -1.2838 0.0817284 -0.807264 -23.8174 0.353062 -0.730552 -3.80481 0.353059 -0.73056 102.16 -48.9581 -82.1753 28.4812 -9.39186 -1.58402 -5.6375 -17.0142 -25.2626 -10.1367 -0.457216 0.0794133 -82.6349 -50.4392 89.6258 -31.3878 2.99506 -19.7446 9.61335 39.6742 -18.7037 -4.83309 -0.0760041 -5.07622 4.49241 -2.05251 -5.24394 -24.2994 -2.8806 9.95942 
